# xmcd
#
# Track frame offsets:
#	150
#	11054
#	23636
#	35820
#	45821
#	56923
#	68793
#	80724
#	90533
#	99982
#	109240
#	118102
#	128025
#	138920
#
# Disc length: 2002 seconds
#
# Revision: 0
# Processed by: cddbd v1.4PL0 Copyright (c) Steve Scherf et al.
# Submitted via: audiograbber 1.80
#
DISCID=b707d00e
DTITLE=Johnny Cash - At His Best - CD 1
DYEAR=1900
DGENRE=
TTITLE0=Cry! Cry! Cry!
TTITLE1=Folsom Prison Blues
TTITLE2=I Walk The Line
TTITLE3=Get Rhythm
TTITLE4=Dont Make Me Go
TTITLE5=Home Of The Blues
TTITLE6=Give My Love To Rose
TTITLE7=Ballad Of A Teenage Queen
TTITLE8=Its Just About Time
TTITLE9=Luther Played The Boogie
TTITLE10=Katy Too
TTITLE11=Goodbye Little Darlin
TTITLE12=I Love You Because
TTITLE13=Man-Eyed Cat
EXTD=
EXTT0=
EXTT1=
EXTT2=
EXTT3=
EXTT4=
EXTT5=
EXTT6=
EXTT7=
EXTT8=
EXTT9=
EXTT10=
EXTT11=
EXTT12=
EXTT13=
PLAYORDER=
